<svg width="310" height="65" viewBox="0 0 310 65" fill="none" xmlns="http://www.w3.org/2000/svg">
<g filter="url(#filter0_d_1402_108)">
<rect x="5" y="1" width="300" height="55" fill="#CCCCCC"/>
<rect x="5" y="1" width="300" height="55" stroke="#505050" stroke-width="2"/>
</g>
<path d="M57.7309 18.88L49.8909 40H45.8909L38.0509 18.88H41.6989L46.6269 32.928L47.9069 37.12L49.1869 32.96L54.1149 18.88H57.7309ZM61.3846 21.312C60.638 21.312 60.062 21.1307 59.6566 20.768C59.2726 20.384 59.0806 19.8507 59.0806 19.168C59.0806 18.4853 59.2726 17.9627 59.6566 17.6C60.062 17.2373 60.638 17.056 61.3846 17.056C62.11 17.056 62.6646 17.2373 63.0486 17.6C63.454 17.9627 63.6566 18.4853 63.6566 19.168C63.6566 19.8507 63.454 20.384 63.0486 20.768C62.6646 21.1307 62.11 21.312 61.3846 21.312ZM63.0806 24V40H59.6566V24H63.0806ZM74.0379 40.32C72.4379 40.32 71.0299 39.9893 69.8139 39.328C68.5979 38.6667 67.6485 37.7173 66.9659 36.48C66.3045 35.2213 65.9739 33.728 65.9739 32C65.9739 30.272 66.3045 28.7893 66.9659 27.552C67.6485 26.2933 68.5872 25.3333 69.7819 24.672C70.9765 24.0107 72.3312 23.68 73.8459 23.68C75.4032 23.68 76.7259 24 77.8139 24.64C78.9019 25.28 79.7339 26.1547 80.3099 27.264C80.8859 28.3733 81.1739 29.632 81.1739 31.04C81.1739 31.424 81.1632 31.7867 81.1419 32.128C81.1205 32.4693 81.0885 32.768 81.0459 33.024H68.1819V30.4H79.5419L77.8459 30.912C77.8459 29.4613 77.4832 28.352 76.7579 27.584C76.0325 26.7947 75.0405 26.4 73.7819 26.4C72.8645 26.4 72.0645 26.6133 71.3819 27.04C70.6992 27.4667 70.1765 28.1067 69.8139 28.96C69.4512 29.792 69.2699 30.816 69.2699 32.032C69.2699 33.2267 69.4619 34.24 69.8459 35.072C70.2299 35.904 70.7739 36.5333 71.4779 36.96C72.1819 37.3867 73.0139 37.6 73.9739 37.6C75.0405 37.6 75.9045 37.3973 76.5659 36.992C77.2272 36.5867 77.7499 36.0213 78.1339 35.296L80.8539 36.576C80.4699 37.344 79.9472 38.016 79.2859 38.592C78.6459 39.1467 77.8779 39.5733 76.9819 39.872C76.0859 40.1707 75.1045 40.32 74.0379 40.32ZM104.004 24H107.716L102.34 40H98.5956L94.5636 28.128L90.7556 40H87.0116L81.6676 24H85.3476L88.9956 36.64L92.9636 24H96.3876L100.356 36.64L104.004 24ZM134.756 40H131.14L129.124 34.464H120.26L118.244 40H114.724L122.692 18.88H126.788L134.756 40ZM121.22 31.68H128.164L124.708 21.824L121.22 31.68ZM139.91 16.8V35.52C139.91 36.3093 140.048 36.8533 140.326 37.152C140.603 37.4507 141.062 37.6 141.702 37.6C142.086 37.6 142.406 37.5787 142.662 37.536C142.939 37.472 143.28 37.3653 143.686 37.216L143.302 39.776C142.939 39.9467 142.523 40.0747 142.054 40.16C141.584 40.2667 141.115 40.32 140.646 40.32C139.216 40.32 138.16 39.9573 137.478 39.232C136.816 38.4853 136.486 37.344 136.486 35.808V16.8H139.91ZM148.438 16.8V35.52C148.438 36.3093 148.577 36.8533 148.854 37.152C149.132 37.4507 149.59 37.6 150.23 37.6C150.614 37.6 150.934 37.5787 151.19 37.536C151.468 37.472 151.809 37.3653 152.214 37.216L151.83 39.776C151.468 39.9467 151.052 40.0747 150.582 40.16C150.113 40.2667 149.644 40.32 149.174 40.32C147.745 40.32 146.689 39.9573 146.006 39.232C145.345 38.4853 145.014 37.344 145.014 35.808V16.8H148.438ZM169.604 18.88C172.911 18.88 175.481 19.7973 177.316 21.632C179.172 23.4453 180.1 26.048 180.1 29.44C180.1 32.832 179.172 35.4453 177.316 37.28C175.481 39.0933 172.911 40 169.604 40H162.148V18.88H169.604ZM169.604 37.088C171.844 37.088 173.551 36.4267 174.724 35.104C175.919 33.76 176.516 31.872 176.516 29.44C176.516 27.008 175.919 25.1307 174.724 23.808C173.551 22.464 171.844 21.792 169.604 21.792H165.572V37.088H169.604ZM190.299 40.32C188.699 40.32 187.291 39.9893 186.075 39.328C184.859 38.6667 183.91 37.7173 183.227 36.48C182.566 35.2213 182.235 33.728 182.235 32C182.235 30.272 182.566 28.7893 183.227 27.552C183.91 26.2933 184.848 25.3333 186.043 24.672C187.238 24.0107 188.592 23.68 190.107 23.68C191.664 23.68 192.987 24 194.075 24.64C195.163 25.28 195.995 26.1547 196.571 27.264C197.147 28.3733 197.435 29.632 197.435 31.04C197.435 31.424 197.424 31.7867 197.403 32.128C197.382 32.4693 197.35 32.768 197.307 33.024H184.443V30.4H195.803L194.107 30.912C194.107 29.4613 193.744 28.352 193.019 27.584C192.294 26.7947 191.302 26.4 190.043 26.4C189.126 26.4 188.326 26.6133 187.643 27.04C186.96 27.4667 186.438 28.1067 186.075 28.96C185.712 29.792 185.531 30.816 185.531 32.032C185.531 33.2267 185.723 34.24 186.107 35.072C186.491 35.904 187.035 36.5333 187.739 36.96C188.443 37.3867 189.275 37.6 190.235 37.6C191.302 37.6 192.166 37.3973 192.827 36.992C193.488 36.5867 194.011 36.0213 194.395 35.296L197.115 36.576C196.731 37.344 196.208 38.016 195.547 38.592C194.907 39.1467 194.139 39.5733 193.243 39.872C192.347 40.1707 191.366 40.32 190.299 40.32ZM206.399 40.32C204.799 40.32 203.338 40.0107 202.015 39.392C200.692 38.7733 199.647 37.8987 198.879 36.768L201.247 34.72C201.716 35.5947 202.388 36.2987 203.263 36.832C204.159 37.344 205.226 37.6 206.463 37.6C207.444 37.6 208.223 37.4293 208.799 37.088C209.375 36.7467 209.663 36.2667 209.663 35.648C209.663 35.2427 209.524 34.8907 209.247 34.592C208.991 34.272 208.49 34.0267 207.743 33.856L204.383 33.152C202.676 32.8107 201.46 32.2667 200.735 31.52C200.01 30.752 199.647 29.7813 199.647 28.608C199.647 27.7333 199.903 26.9227 200.415 26.176C200.927 25.4293 201.674 24.832 202.655 24.384C203.658 23.9147 204.852 23.68 206.239 23.68C207.839 23.68 209.204 23.968 210.335 24.544C211.466 25.0987 212.33 25.8987 212.927 26.944L210.559 28.928C210.154 28.0747 209.556 27.4453 208.767 27.04C207.978 26.6133 207.156 26.4 206.303 26.4C205.62 26.4 205.034 26.4853 204.543 26.656C204.052 26.8267 203.679 27.0613 203.423 27.36C203.167 27.6587 203.039 28.0107 203.039 28.416C203.039 28.8427 203.199 29.216 203.519 29.536C203.839 29.856 204.415 30.1013 205.247 30.272L208.895 31.04C210.431 31.3387 211.508 31.8507 212.127 32.576C212.767 33.28 213.087 34.144 213.087 35.168C213.087 36.192 212.82 37.0987 212.287 37.888C211.754 38.656 210.986 39.2533 209.983 39.68C208.98 40.1067 207.786 40.32 206.399 40.32ZM217.545 21.312C216.798 21.312 216.222 21.1307 215.817 20.768C215.433 20.384 215.241 19.8507 215.241 19.168C215.241 18.4853 215.433 17.9627 215.817 17.6C216.222 17.2373 216.798 17.056 217.545 17.056C218.27 17.056 218.825 17.2373 219.209 17.6C219.614 17.9627 219.817 18.4853 219.817 19.168C219.817 19.8507 219.614 20.384 219.209 20.768C218.825 21.1307 218.27 21.312 217.545 21.312ZM219.241 24V40H215.817V24H219.241ZM237.238 20.64L237.782 23.328C237.718 23.328 237.654 23.328 237.59 23.328C237.526 23.3067 237.462 23.296 237.398 23.296C236.374 23.296 235.595 23.52 235.062 23.968C234.529 24.3947 234.262 25.024 234.262 25.856L232.598 25.088C232.598 24.2347 232.779 23.4773 233.142 22.816C233.505 22.1333 234.017 21.6 234.678 21.216C235.361 20.832 236.129 20.64 236.982 20.64C237.025 20.64 237.067 20.64 237.11 20.64C237.153 20.64 237.195 20.64 237.238 20.64ZM232.182 37.504C233.803 37.504 235.062 37.8667 235.958 38.592C236.854 39.296 237.302 40.2773 237.302 41.536C237.302 42.6453 236.95 43.5947 236.246 44.384C235.542 45.1947 234.582 45.8133 233.366 46.24C232.171 46.6667 230.795 46.88 229.238 46.88C226.614 46.88 224.673 46.4747 223.414 45.664C222.155 44.8533 221.526 43.84 221.526 42.624C221.526 41.7707 221.825 41.024 222.422 40.384C223.041 39.744 224.075 39.3813 225.526 39.296L225.334 39.808C224.438 39.616 223.713 39.2747 223.158 38.784C222.625 38.272 222.358 37.5573 222.358 36.64C222.358 35.7227 222.71 34.944 223.414 34.304C224.118 33.664 225.11 33.2907 226.39 33.184L228.182 34.048H227.798C226.817 34.1333 226.123 34.3573 225.718 34.72C225.313 35.0827 225.11 35.488 225.11 35.936C225.11 36.4693 225.302 36.864 225.686 37.12C226.091 37.376 226.657 37.504 227.382 37.504H232.182ZM229.238 44.32C230.411 44.32 231.371 44.2027 232.118 43.968C232.886 43.7547 233.451 43.4667 233.814 43.104C234.198 42.7627 234.39 42.3787 234.39 41.952C234.39 41.4613 234.187 41.0667 233.782 40.768C233.398 40.4693 232.694 40.32 231.67 40.32H226.518C225.921 40.32 225.419 40.4693 225.014 40.768C224.609 41.088 224.406 41.5147 224.406 42.048C224.406 42.752 224.833 43.3067 225.686 43.712C226.539 44.1173 227.723 44.32 229.238 44.32ZM229.11 23.68C230.518 23.68 231.734 23.904 232.758 24.352C233.803 24.8 234.603 25.4293 235.158 26.24C235.734 27.0507 236.022 28 236.022 29.088C236.022 30.176 235.734 31.1253 235.158 31.936C234.603 32.7467 233.803 33.376 232.758 33.824C231.734 34.272 230.518 34.496 229.11 34.496C226.891 34.496 225.185 34.0053 223.99 33.024C222.817 32.0213 222.23 30.7093 222.23 29.088C222.23 28 222.518 27.0507 223.094 26.24C223.67 25.4293 224.47 24.8 225.494 24.352C226.539 23.904 227.745 23.68 229.11 23.68ZM229.11 26.08C228.129 26.08 227.307 26.3573 226.646 26.912C226.006 27.4453 225.686 28.1707 225.686 29.088C225.686 30.0053 226.006 30.7413 226.646 31.296C227.307 31.8507 228.129 32.128 229.11 32.128C230.113 32.128 230.934 31.8507 231.574 31.296C232.235 30.7413 232.566 30.0053 232.566 29.088C232.566 28.1707 232.235 27.4453 231.574 26.912C230.934 26.3573 230.113 26.08 229.11 26.08ZM238.999 40V24H242.039L242.263 28.16L241.815 27.712C242.114 26.7947 242.54 26.0373 243.095 25.44C243.671 24.8213 244.343 24.3733 245.111 24.096C245.9 23.8187 246.732 23.68 247.607 23.68C248.738 23.68 249.751 23.904 250.647 24.352C251.564 24.7787 252.29 25.4293 252.823 26.304C253.356 27.1787 253.623 28.288 253.623 29.632V40H250.199V30.688C250.199 29.1093 249.868 28.0213 249.207 27.424C248.567 26.8053 247.756 26.496 246.775 26.496C246.071 26.496 245.388 26.6667 244.727 27.008C244.066 27.328 243.511 27.8507 243.063 28.576C242.636 29.3013 242.423 30.272 242.423 31.488V40H238.999ZM263.452 40.32C261.852 40.32 260.39 40.0107 259.068 39.392C257.745 38.7733 256.7 37.8987 255.932 36.768L258.3 34.72C258.769 35.5947 259.441 36.2987 260.316 36.832C261.212 37.344 262.278 37.6 263.516 37.6C264.497 37.6 265.276 37.4293 265.852 37.088C266.428 36.7467 266.716 36.2667 266.716 35.648C266.716 35.2427 266.577 34.8907 266.3 34.592C266.044 34.272 265.542 34.0267 264.796 33.856L261.436 33.152C259.729 32.8107 258.513 32.2667 257.788 31.52C257.062 30.752 256.7 29.7813 256.7 28.608C256.7 27.7333 256.956 26.9227 257.468 26.176C257.98 25.4293 258.726 24.832 259.708 24.384C260.71 23.9147 261.905 23.68 263.292 23.68C264.892 23.68 266.257 23.968 267.388 24.544C268.518 25.0987 269.382 25.8987 269.98 26.944L267.612 28.928C267.206 28.0747 266.609 27.4453 265.82 27.04C265.03 26.6133 264.209 26.4 263.356 26.4C262.673 26.4 262.086 26.4853 261.596 26.656C261.105 26.8267 260.732 27.0613 260.476 27.36C260.22 27.6587 260.092 28.0107 260.092 28.416C260.092 28.8427 260.252 29.216 260.572 29.536C260.892 29.856 261.468 30.1013 262.3 30.272L265.948 31.04C267.484 31.3387 268.561 31.8507 269.18 32.576C269.82 33.28 270.14 34.144 270.14 35.168C270.14 36.192 269.873 37.0987 269.34 37.888C268.806 38.656 268.038 39.2533 267.036 39.68C266.033 40.1067 264.838 40.32 263.452 40.32Z" fill="black"/>
<defs>
<filter id="filter0_d_1402_108" x="0" y="0" width="310" height="65" filterUnits="userSpaceOnUse" color-interpolation-filters="sRGB">
<feFlood flood-opacity="0" result="BackgroundImageFix"/>
<feColorMatrix in="SourceAlpha" type="matrix" values="0 0 0 0 0 0 0 0 0 0 0 0 0 0 0 0 0 0 127 0" result="hardAlpha"/>
<feOffset dy="4"/>
<feGaussianBlur stdDeviation="2"/>
<feComposite in2="hardAlpha" operator="out"/>
<feColorMatrix type="matrix" values="0 0 0 0 0 0 0 0 0 0 0 0 0 0 0 0 0 0 0.25 0"/>
<feBlend mode="normal" in2="BackgroundImageFix" result="effect1_dropShadow_1402_108"/>
<feBlend mode="normal" in="SourceGraphic" in2="effect1_dropShadow_1402_108" result="shape"/>
</filter>
</defs>
</svg>
